<svg xmlns="http://www.w3.org/2000/svg" xmlns:xlink="http://www.w3.org/1999/xlink" width="500" zoomAndPan="magnify" viewBox="0 0 375 374.999991" height="500" preserveAspectRatio="xMidYMid meet" version="1.0"><defs><g/><clipPath id="74ed345b44"><path d="M 2.582031 2.582031 L 372.332031 2.582031 L 372.332031 372.332031 L 2.582031 372.332031 Z M 2.582031 2.582031 " clip-rule="nonzero"/></clipPath></defs><g clip-path="url(#74ed345b44)"><path fill="#353428" d="M 372.332031 331.246094 C 372.332031 353.933594 353.933594 372.332031 331.246094 372.332031 L 43.664062 372.332031 C 20.976562 372.332031 2.582031 353.933594 2.582031 331.246094 L 2.582031 43.664062 C 2.582031 20.976562 20.976562 2.582031 43.664062 2.582031 L 331.246094 2.582031 C 353.933594 2.582031 372.332031 20.976562 372.332031 43.664062 Z M 372.332031 331.246094 " fill-opacity="1" fill-rule="nonzero"/></g><g fill="#ffffff" fill-opacity="1"><g transform="translate(191.103982, 348.46936)"><g/></g></g><g fill="#ffffff" fill-opacity="1"><g transform="translate(116.031308, 227.858555)"><g><path d="M 80.804688 10.386719 C 77.929688 11.738281 73.082031 12.738281 69.949219 11.429688 C 66.699219 10.023438 67.421875 5.226562 67.792969 2.398438 C 68.519531 -3.46875 70.210938 -9.324219 71.914062 -15.074219 C 72.914062 -18.070312 73.800781 -21.164062 74.789062 -24.265625 C 75.046875 -24.9375 77.148438 -32.121094 77.042969 -32.109375 C 76.832031 -32.089844 76.542969 -31.738281 76.371094 -31.292969 C 79.347656 -39.421875 84.800781 -48.644531 82.207031 -57.742188 C 81.082031 -61.605469 77.9375 -65.277344 73.585938 -64.753906 C 69.859375 -64.394531 66.71875 -61.300781 64.390625 -58.714844 C 60.011719 -53.996094 56.554688 -48.613281 53.320312 -43.148438 C 52.945312 -42.574219 51.488281 -39.859375 49.859375 -36.691406 C 50.660156 -38.382812 51.796875 -39.996094 52.71875 -41.585938 C 48.851562 -34.878906 45.546875 -27.902344 42.347656 -20.933594 C 44.367188 -31.226562 48.375 -40.953125 51.613281 -50.824219 C 52.875 -54.492188 55.226562 -57.941406 56.371094 -61.703125 C 57.585938 -65.792969 56.148438 -70.703125 53.171875 -73.746094 C 46.632812 -80.316406 39.410156 -67.160156 36.257812 -63.097656 C 29.851562 -54.855469 24.75 -45.34375 20.046875 -36.191406 C 20.566406 -38.605469 20.777344 -40.878906 21.402344 -43.304688 C 22.179688 -46.386719 23.074219 -49.371094 23.746094 -52.445312 C 24.515625 -55.632812 25.164062 -58.917969 25.824219 -62.097656 C 26.488281 -65.273438 27.152344 -69.527344 26.089844 -72.753906 C 25.332031 -75.046875 24.058594 -78.253906 22.183594 -79.898438 C 19.246094 -82.515625 15.539062 -81.945312 12.238281 -80.554688 C 9.242188 -79.300781 6.726562 -77.554688 4.472656 -75.296875 C 3.308594 -74.003906 2.25 -72.71875 1.199219 -71.328125 L 0.28125 -69.738281 C -0.277344 -68.824219 -0.0898438 -67.984375 -0.335938 -67.207031 C -1.175781 -64.765625 -2.8125 -62.78125 -3.3125 -60.15625 C -3.78125 -57.210938 -3.605469 -53.144531 -1.65625 -50.753906 C -0.691406 -49.664062 0.773438 -48.945312 1.949219 -50.132812 C 2.621094 -50.949219 2.230469 -51.664062 2.253906 -52.527344 C 2.300781 -53.175781 2.457031 -54.910156 2.78125 -56.015625 C 4.195312 -61.414062 6.566406 -66.90625 10.007812 -71.316406 C 11.433594 -73.28125 13.183594 -75.167969 15.464844 -76.03125 C 18.585938 -77.082031 18.9375 -74.539062 18.757812 -71.941406 L 18.496094 -67.945312 L 18.394531 -69.007812 C 16.414062 -57.21875 11.476562 -46 8.496094 -34.542969 C 6.996094 -28.921875 5.144531 -23.589844 3.421875 -18.050781 C 1.699219 -12.515625 -0.253906 -5.992188 -0.0117188 -0.105469 C 0.078125 1.925781 0.699219 3.90625 2.417969 5.03125 C 4.371094 6.347656 7.148438 6.1875 8.347656 4.140625 C 9.265625 2.546875 9.542969 -0.164062 10.019531 -1.929688 C 10.816406 -4.800781 11.507812 -7.660156 12.425781 -10.429688 C 13.210938 -13.40625 14.777344 -16.136719 16.117188 -18.949219 C 18.992188 -24.8125 21.863281 -30.671875 24.960938 -36.449219 C 27.867188 -41.992188 30.78125 -47.425781 34.035156 -52.679688 C 37.300781 -57.828125 40.554688 -63.082031 45.101562 -67.171875 C 45.796875 -67.773438 48.15625 -70.042969 49.261719 -69.71875 C 50.144531 -69.480469 49.445312 -67.804688 49.207031 -66.921875 C 47.871094 -61.851562 46.007812 -56.625 43.777344 -51.898438 C 38.605469 -40.875 33.347656 -28.554688 32.160156 -16.300781 C 31.699219 -12.175781 32.085938 -8.132812 35.578125 -5.351562 C 39.171875 -2.582031 40.085938 -5.355469 40.863281 -8.4375 C 41.480469 -10.96875 43.085938 -13.269531 44.148438 -15.628906 C 45.671875 -18.78125 47.078125 -22.03125 48.695312 -25.304688 C 49.703125 -27.117188 50.328125 -29.542969 51.589844 -30.953125 C 53.609375 -33.402344 54.960938 -36.109375 56.527344 -38.839844 C 59.738281 -44.515625 62.972656 -49.984375 67.34375 -54.808594 C 68.410156 -55.984375 70.804688 -59.007812 72.65625 -58.757812 C 74.941406 -58.4375 72.832031 -54.691406 73.070312 -53.316406 L 73.675781 -54.878906 C 73.21875 -52.902344 72.753906 -51.03125 72.183594 -49.152344 C 72.066406 -49.246094 72.371094 -50.566406 72.371094 -50.566406 C 71.933594 -50.628906 70.191406 -45.308594 69.921875 -44.746094 C 68.640625 -41.292969 67.042969 -37.808594 66.210938 -34.183594 C 65.347656 -30.878906 64.460938 -27.785156 63.375 -24.566406 L 61.546875 -19.019531 C 61.230469 -17.808594 60.199219 -15.128906 60.644531 -13.882812 C 60.75 -13.894531 60.855469 -13.90625 60.84375 -14.011719 L 60.496094 -12.042969 C 60.5625 -12.480469 60.578125 -13.449219 60.566406 -13.554688 C 60.171875 -13.195312 60.269531 -11.054688 60.269531 -11.054688 C 58.574219 -1.871094 58.421875 7.703125 65.359375 15.09375 C 68.710938 18.636719 72.386719 20.003906 76.945312 18.277344 C 79.128906 17.53125 81.15625 16.261719 82.820312 14.597656 C 83.792969 13.535156 86.816406 10.347656 86.226562 8.683594 C 85.746094 7.011719 81.839844 9.964844 80.804688 10.386719 Z M 63.582031 -20.183594 C 64.355469 -22.191406 65.011719 -24.292969 65.671875 -26.398438 C 66.15625 -28.054688 66.304688 -30.96875 67.246094 -32.347656 C 67.574219 -32.273438 67.605469 -31.953125 67.347656 -31.285156 C 66.972656 -27.382812 65.253906 -22.921875 63.898438 -19.136719 C 62.808594 -15.917969 61.734375 -12.59375 60.976562 -9.296875 C 61.703125 -12.910156 62.214844 -16.507812 63.582031 -20.183594 Z M 13.375 -47.472656 C 14.527344 -51.128906 15.339844 -54.964844 16.492188 -58.621094 C 16.988281 -60.171875 17.570312 -61.945312 17.9375 -63.699219 C 17.140625 -58.578125 16.027344 -53.421875 14.144531 -48.40625 C 12.351562 -43.613281 10.777344 -38.738281 9.320312 -33.765625 C 10.59375 -38.398438 11.878906 -42.925781 13.375 -47.472656 Z M 48.945312 -34.996094 C 46.609375 -30.257812 44.070312 -25.394531 44.070312 -25.394531 C 44.398438 -25.320312 47.703125 -32.296875 48.945312 -34.996094 Z M 63.171875 -56.878906 L 59.632812 -52.347656 C 60.765625 -53.960938 61.910156 -55.46875 63.171875 -56.878906 Z M 60.453125 -5.808594 C 60.121094 -5.886719 60.101562 -6.097656 60.378906 -6.554688 C 60.601562 -6.46875 60.625 -6.257812 60.453125 -5.808594 Z M 58.691406 -50.96875 L 58.871094 -51.308594 L 58.882812 -51.203125 C 59.054688 -51.648438 59.34375 -52 59.4375 -52.113281 L 59.632812 -52.347656 L 59.449219 -52.007812 L 59.351562 -51.890625 L 59.160156 -51.660156 L 59.0625 -51.542969 C 59.0625 -51.542969 59.171875 -51.550781 59.160156 -51.660156 L 59.0625 -51.542969 L 58.976562 -51.320312 Z M 49.128906 -35.335938 L 49.492188 -36.015625 L 49.503906 -35.90625 Z M 48.945312 -34.996094 L 49.128906 -35.335938 C 49.140625 -35.226562 49.042969 -35.109375 48.945312 -34.996094 Z M 59.34375 -52 L 59.4375 -52.113281 C 59.4375 -52.113281 59.449219 -52.007812 59.34375 -52 Z M 59.34375 -52 "/></g></g></g><g fill="#ffffff" fill-opacity="1"><g transform="translate(204.678992, 219.338667)"><g><path d="M 59.824219 -63.753906 C 59.070312 -67.117188 53.609375 -69.171875 50.929688 -66.871094 C 48.742188 -65.050781 47.035156 -60.484375 45.578125 -57.765625 L 36.660156 -41.011719 C 35.300781 -38.410156 33.9375 -35.808594 32.460938 -33.300781 C 32.105469 -32.515625 28.664062 -25.847656 28.664062 -25.847656 C 29.101562 -25.785156 29.914062 -27.367188 30.109375 -27.597656 C 27.625 -23.277344 24.308594 -18.664062 21.183594 -14.28125 C 20.15625 -12.679688 14.023438 -2.742188 11.355469 -3.667969 C 10.464844 -4.011719 10.117188 -5.375 9.9375 -6.109375 C 8.546875 -11.671875 10.132812 -17.515625 10.25 -23.003906 L 9.925781 -21.898438 L 10.308594 -24.621094 C 10.339844 -24.300781 10.261719 -23.972656 10.292969 -23.652344 L 10.339844 -24.300781 L 10.328125 -21.078125 C 11.203125 -27.609375 12.738281 -33.984375 14.613281 -40.179688 C 15.109375 -41.730469 19.796875 -57.757812 20.941406 -59.265625 C 20.738281 -59.136719 20.460938 -58.679688 20.183594 -58.222656 C 21.847656 -62.144531 23.636719 -65.859375 25.757812 -69.5 C 25.308594 -68.597656 24.503906 -66.910156 24.503906 -66.910156 C 24.941406 -66.84375 28.632812 -73.105469 28.574219 -73.746094 C 28.5625 -73.851562 28.265625 -73.609375 27.964844 -73.367188 C 28.898438 -74.851562 29.570312 -75.667969 28.492188 -77.925781 C 26.960938 -80.464844 22.917969 -83.40625 19.984375 -81.511719 C 19.386719 -81.027344 19.011719 -80.453125 18.640625 -79.878906 C 16.679688 -76.792969 15.230469 -72.894531 14.046875 -69.558594 C 13.636719 -68.230469 13.230469 -67.976562 12.472656 -66.933594 C 11.242188 -65.207031 10.699219 -63.003906 9.917969 -61.105469 C 8.371094 -57.089844 7.269531 -52.902344 5.945312 -48.800781 C 4.589844 -45.015625 3.5625 -41.160156 2.761719 -37.214844 C 2.371094 -35.675781 2.089844 -34.144531 1.804688 -32.613281 C 1.523438 -31.082031 0.300781 -28.171875 0.667969 -26.59375 L 1.171875 -28.039062 C 0.8125 -26.179688 0.570312 -24.222656 0.332031 -22.265625 C 0.222656 -22.257812 0.304688 -23.660156 0.304688 -23.660156 C -0.121094 -23.617188 -0.628906 -18.84375 -0.78125 -18.183594 C -0.992188 -15.910156 -1.097656 -13.644531 -1.085938 -11.28125 C -0.957031 -8.824219 -0.632812 -6.597656 0.75 -4.476562 C 3.363281 -0.753906 7.777344 2.691406 12.273438 3.652344 C 13.039062 3.796875 13.910156 3.925781 14.644531 3.75 C 15.382812 3.570312 16.09375 3.179688 16.578125 2.597656 C 16.980469 2.34375 18.511719 0.371094 17.421875 1.332031 L 19.257812 -0.777344 C 19.257812 -0.777344 18.414062 0.484375 18.117188 0.730469 C 18.628906 0.464844 19.644531 -1.242188 19.644531 -1.242188 C 22.789062 -5.414062 25.941406 -9.476562 28.738281 -13.933594 C 31.605469 -18.71875 34.117188 -23.902344 36.636719 -28.976562 C 36.03125 -26.339844 36.0625 -23.765625 35.5625 -21.140625 C 35.269531 -19.714844 34.976562 -18.292969 34.789062 -16.878906 C 34.628906 -16.324219 34.660156 -13.75 34.855469 -13.984375 C 34.886719 -13.664062 34.90625 -13.453125 34.820312 -13.226562 C 34.808594 -13.335938 34.796875 -13.441406 34.683594 -13.539062 C 34.375 -13.398438 34.679688 -10.207031 34.625 -9.664062 C 34.34375 -8.132812 33.835938 -6.6875 33.789062 -4.964844 C 33.683594 -0.445312 34.503906 4.738281 37.640625 8.304688 C 39.570312 10.484375 42.246094 11.515625 45.140625 11.453125 C 48.238281 11.261719 49.777344 9.394531 51.148438 6.898438 C 52.058594 5.199219 52.882812 3.726562 53.347656 1.855469 C 53.738281 0.3125 54.523438 -2.664062 53.742188 -4.089844 C 53.226562 -5.007812 53 -5.09375 52.191406 -4.585938 C 51.0625 -4.046875 49.921875 -1.359375 49.269531 -0.332031 C 48.320312 0.941406 46.476562 4.125 44.6875 4.511719 C 43.632812 4.722656 43.824219 4.488281 43.492188 3.230469 C 43.3125 2.496094 42.832031 -2.503906 42.929688 -2.621094 C 42.648438 -2.164062 42.585938 -1.730469 42.519531 -1.292969 C 42.605469 -4.847656 43.6875 -9.246094 44.394531 -13.074219 C 45.25 -17.5625 45.789062 -22.015625 46.542969 -26.492188 C 47.390625 -31.085938 48.664062 -35.71875 50.0625 -40.148438 C 50.394531 -41.148438 54.171875 -52.144531 54.824219 -53.175781 C 54.132812 -52.570312 51.078125 -44.113281 50.054688 -41.332031 C 52.027344 -47.644531 54.445312 -53.785156 57.636719 -59.675781 C 57.746094 -59.6875 56.746094 -57.765625 56.960938 -57.785156 C 57.300781 -57.601562 59.476562 -61.785156 59.253906 -61.871094 C 59.148438 -61.863281 59.039062 -61.851562 58.945312 -61.734375 C 59.425781 -62.316406 60.03125 -62.699219 59.824219 -63.753906 Z M 36.90625 -10.527344 C 36.367188 -6.074219 35.863281 -0.117188 37.136719 4.164062 C 35.707031 -0.640625 35.496094 -6.203125 35.875 -11.183594 C 36.125 -15.289062 36.9375 -19.125 37.964844 -22.984375 C 37.203125 -18.613281 37.453125 -14.878906 36.90625 -10.527344 Z M 15.242188 -49.265625 C 17.539062 -56.679688 21.171875 -63.582031 25.046875 -70.183594 C 21.191406 -63.371094 18.238281 -56.105469 15.730469 -48.667969 C 13.824219 -42.789062 12.113281 -37.148438 11.058594 -31.351562 C 11.234375 -32.875 11.410156 -34.394531 11.800781 -35.9375 C 12.65625 -40.421875 13.949219 -44.84375 15.242188 -49.265625 Z M 13.789062 -38.703125 C 15.203125 -44.105469 16.9375 -49.535156 19 -54.886719 C 17.128906 -49.765625 14.671875 -41.796875 13.789062 -38.703125 Z M 48.203125 -34.921875 C 47.972656 -33.933594 47.640625 -32.9375 47.296875 -32.042969 L 48.742188 -37.125 Z M 20.195312 -58.117188 L 20.183594 -58.222656 Z M 26.824219 -72.933594 C 26.835938 -72.828125 26.738281 -72.710938 26.632812 -72.699219 C 26.738281 -72.710938 26.835938 -72.828125 26.824219 -72.933594 Z M 26.824219 -72.933594 "/></g></g></g></svg>