<svg xmlns="http://www.w3.org/2000/svg" xmlns:xlink="http://www.w3.org/1999/xlink" width="500" zoomAndPan="magnify" viewBox="0 0 375 374.999991" height="500" preserveAspectRatio="xMidYMid meet" version="1.0"><defs><clipPath id="2c1e7800b5"><path d="M 6 67 L 369.660156 67 L 369.660156 312.929688 L 6 312.929688 Z M 6 67 " clip-rule="nonzero"/></clipPath></defs><rect x="-37.5" width="450" fill="#ffffff" y="-37.499999" height="449.999989" fill-opacity="1"/><rect x="-37.5" width="450" fill="#ffffff" y="-37.499999" height="449.999989" fill-opacity="1"/><rect x="-37.5" width="450" fill="#ffffff" y="-37.499999" height="449.999989" fill-opacity="1"/><g clip-path="url(#2c1e7800b5)"><path fill="#ac99dd" d="M 330.800781 165.703125 C 332.042969 167.441406 327.820312 170.058594 330.800781 172.304688 C 331.832031 172.332031 332.359375 171.863281 332.605469 171.109375 C 333.9375 171.359375 333.074219 174.292969 332.605469 174.710938 C 332.859375 176.058594 335.785156 174.726562 336.207031 175.910156 C 332.796875 186.710938 324.097656 192.214844 313.390625 195.71875 C 326.902344 202.976562 353.953125 201.207031 367.429688 204.722656 C 367.972656 209.242188 369.246094 211.601562 368.027344 216.128906 C 367.613281 217.742188 369.269531 217.289062 369.824219 217.929688 C 367.367188 223.191406 366.640625 227.015625 365.621094 234.136719 C 358.644531 238.394531 350.070312 241.003906 340.40625 240.738281 C 335.785156 240.613281 331.292969 237.664062 327.199219 237.738281 C 325.101562 237.777344 323.765625 238.820312 320.59375 237.738281 C 319.820312 238.753906 320.746094 241.417969 319.394531 243.140625 C 322.253906 246.285156 328.339844 246.199219 331.402344 249.144531 C 332.953125 248.371094 333.289062 247.902344 332.601562 246.144531 C 333.492188 247.253906 335.707031 247.042969 335.605469 249.144531 C 335.019531 249.128906 335.136719 248.410156 335.003906 247.945312 C 333.300781 247.84375 335.726562 251.871094 333.203125 250.949219 C 335.71875 253.574219 336.253906 256.585938 339.804688 256.949219 C 340 259.34375 339.839844 261.382812 338.609375 262.351562 C 344.21875 270.933594 335.195312 276.210938 330.800781 281.5625 C 321.824219 287.140625 311.109375 283.335938 300.785156 285.765625 C 300.566406 285.816406 299.335938 286.144531 298.984375 286.363281 C 290.375 291.730469 282.292969 304.554688 268.371094 300.769531 C 266.507812 302.378906 269.9375 303.054688 268.371094 304.371094 C 264.316406 303.71875 262.046875 304.855469 261.765625 307.972656 C 254.132812 305.851562 251.15625 307.207031 244.351562 309.777344 C 244.9375 310.582031 245.953125 310.972656 246.753906 311.574219 C 241.859375 311.796875 236.066406 309.828125 231.144531 309.171875 C 230.730469 310.785156 232.382812 310.332031 232.945312 310.96875 C 227.152344 312.359375 219.316406 310.59375 213.734375 309.773438 C 212.921875 309.957031 213.238281 311.273438 213.136719 312.175781 C 208.992188 311.664062 200.816406 311.738281 196.925781 309.171875 C 195.628906 309.601562 192.605469 309.933594 190.320312 309.171875 C 177.171875 304.792969 159.644531 301.242188 145.292969 300.167969 C 142.550781 299.964844 139.75 301.394531 137.488281 298.96875 C 124.714844 299.898438 114.027344 294.136719 102.066406 291.761719 C 89.621094 289.300781 77.265625 285.828125 66.042969 286.363281 C 66.722656 287.78125 72.0625 288.394531 73.246094 291.164062 C 57.296875 290.117188 49.589844 284.800781 36.625 280.960938 C 36.867188 279.515625 35.527344 279.65625 36.023438 277.957031 C 30.03125 273.257812 27.265625 267.5625 19.816406 263.546875 C 20.351562 262.488281 22.25 262.78125 21.613281 260.546875 C 17.816406 258.382812 21.300781 257.972656 16.8125 256.945312 C 17.457031 255.390625 18.269531 254 18.011719 251.542969 C 19.699219 250.582031 20.570312 252.550781 20.414062 249.746094 C 21.714844 249.644531 20.6875 251.875 21.011719 252.746094 C 23.144531 251.5625 22.203125 251.964844 24.617188 252.746094 C 25.636719 249.722656 22.714844 250.644531 21.613281 249.746094 C 21.976562 247.507812 20.078125 245.945312 21.613281 244.339844 C 20.898438 242.8125 16.105469 242.554688 19.214844 240.742188 C 16.492188 239.660156 15.691406 236.65625 12.007812 236.539062 C 12.535156 233.125 12.800781 233.066406 13.207031 229.9375 C 14.273438 229.800781 16.214844 230.539062 15.609375 228.734375 C 18.074219 228.457031 15.363281 230.019531 16.210938 231.738281 C 19.453125 231.628906 24.671875 225.074219 25.214844 228.132812 C 27.652344 225.726562 27.703125 224.773438 33.015625 224.53125 C 32.773438 223.378906 30.691406 224.0625 31.21875 222.132812 C 33.113281 221.835938 33.339844 223.214844 35.421875 222.730469 C 35.058594 219.09375 30.09375 220.050781 27.613281 218.53125 C 28.332031 216.25 28.59375 215.308594 31.21875 216.128906 C 32.152344 211.945312 28.089844 211.363281 26.417969 213.125 C 27.261719 210.96875 28.738281 209.449219 30.015625 207.722656 C 28.277344 206.464844 26.65625 205.082031 24.617188 204.121094 C 27.425781 196.582031 22.523438 188.4375 22.816406 177.109375 C 25.117188 177 23.03125 177.597656 23.417969 178.910156 C 34.765625 180.570312 57.335938 182.679688 76.855469 181.3125 C 60.53125 179.054688 48.152344 175.335938 30.621094 177.710938 C 30.105469 175.320312 34.328125 176.085938 32.421875 174.109375 C 31.347656 172.011719 26.566406 174.234375 25.21875 172.910156 C 25.066406 171.160156 26.347656 170.839844 27.019531 169.90625 C 22.828125 166.746094 16.042969 163.085938 12.605469 162.703125 C 10.621094 160.195312 12.359375 156.292969 11.410156 151.898438 C 12.949219 151.960938 12.371094 154.136719 13.207031 154.902344 C 14.347656 153.234375 14.636719 150.726562 16.210938 149.5 C 20.121094 150.109375 25.078125 147.378906 28.816406 145.894531 C 24.285156 144.738281 22.355469 146.273438 17.410156 145.296875 C 17.625 143.710938 20.46875 144.753906 21.011719 143.5 C 17.613281 142.894531 16.105469 140.402344 12.007812 140.496094 C 10.546875 139.382812 15.964844 140.089844 17.410156 139.898438 C 13.453125 138.453125 10.410156 136.089844 6.601562 134.496094 C 6.65625 132.546875 8.664062 132.558594 9.605469 131.492188 C 9.6875 128.40625 6.722656 128.371094 6 126.089844 C 6.761719 123.328125 9.414062 124.792969 12.007812 124.894531 C 13.558594 123.6875 9.378906 123.15625 9.003906 121.890625 C 9.199219 120.484375 9.726562 119.410156 10.207031 118.285156 C 14.921875 119 16.296875 116.375 21.011719 117.089844 C 22.808594 116.691406 20.4375 115.804688 21.011719 114.683594 C 28.140625 115.847656 37.191406 112.984375 43.226562 117.089844 C 45.113281 117.371094 44.808594 115.472656 46.230469 115.285156 C 47.011719 113.492188 42.285156 112.898438 45.625 112.285156 C 44.910156 110.84375 42.371094 112.574219 43.226562 114.6875 C 41.738281 108.5625 44.375 105.066406 45.625 99.679688 C 55.90625 97.546875 67.542969 96.78125 78.046875 94.882812 C 76.46875 89.992188 79.191406 85.035156 79.851562 80.46875 C 112.480469 62.574219 169.035156 66.996094 216.136719 69.667969 C 236.46875 70.820312 258.339844 72.148438 270.769531 79.273438 C 269.882812 83.085938 269.390625 85.035156 267.765625 88.878906 C 253.808594 90.78125 233.554688 87.78125 214.933594 88.878906 C 232.820312 95.636719 258.9375 100.042969 279.175781 106.289062 C 283.132812 107.507812 287.511719 109.355469 292.984375 109.289062 C 293.851562 111.429688 295.054688 113.226562 297.785156 113.492188 C 296.785156 115.253906 295.679688 118.148438 299.585938 117.691406 C 300.621094 124.496094 302.582031 129.070312 299.585938 134.503906 C 301.773438 139.675781 306.070312 143.574219 301.386719 150.109375 C 305.210938 156.890625 318.175781 154.53125 321.800781 161.515625 C 323.246094 161.269531 323.105469 162.613281 324.800781 162.117188 C 325.480469 165.039062 326.164062 167.957031 329.003906 168.71875 C 330.074219 167.402344 329.402344 165.292969 330.800781 165.703125 Z M 261.765625 206.523438 C 263.386719 204.710938 265.46875 208.867188 265.964844 205.925781 C 264.171875 206.082031 262.308594 204.246094 261.765625 206.523438 Z M 243.152344 202.320312 C 243.808594 204.484375 249.441406 204.808594 251.554688 203.519531 C 248.9375 203.316406 245.894531 200.398438 243.152344 202.320312 Z M 237.148438 201.71875 C 239.207031 201.050781 241.996094 204.726562 242.550781 201.71875 C 240.304688 202.515625 238.402344 199.929688 237.148438 201.71875 Z M 225.140625 166.304688 C 229.152344 166.78125 237.433594 169.105469 240.148438 166.902344 C 234.679688 166.515625 229 164.273438 225.140625 166.304688 Z M 157.292969 190.316406 C 154.890625 190.632812 159.847656 192.402344 159.695312 192.714844 C 159.746094 192.617188 157.285156 193.011719 157.898438 193.316406 C 160.449219 194.605469 163.058594 192.898438 166.300781 193.316406 C 170.90625 193.90625 175.664062 197.425781 178.910156 194.515625 C 187.476562 197.761719 196.261719 196.484375 204.726562 197.519531 C 214.929688 198.761719 226.898438 202.578125 234.144531 200.519531 C 228.949219 199.199219 221.121094 198.296875 216.132812 195.117188 C 216.597656 194.984375 217.316406 195.101562 217.332031 194.519531 C 211.707031 193.339844 203.273438 191.773438 198.121094 192.117188 C 199.03125 193.609375 203.289062 191.75 204.125 193.316406 C 202.234375 194.96875 199.597656 192.304688 198.121094 193.917969 C 200.949219 194.488281 203.898438 194.941406 205.324219 196.917969 C 201.710938 195.550781 196.433594 195.835938 197.519531 192.714844 C 186.730469 193.355469 171.847656 188.363281 165.097656 191.515625 C 166.539062 191.910156 171.375 191.996094 169.902344 193.316406 C 165.332031 192.683594 160.390625 192.417969 157.292969 190.316406 Z M 221.539062 154.898438 C 191.4375 150.335938 152.089844 148.667969 123.074219 150.097656 C 151.53125 151.746094 183.949219 151.183594 211.929688 157.902344 C 211.222656 157.992188 210.226562 157.796875 210.128906 158.5 C 215.140625 155.632812 219.476562 161.710938 225.738281 160.296875 C 225.066406 158.382812 223.128906 157.273438 221.539062 154.898438 Z M 192.121094 226.933594 C 195.136719 226.519531 196.960938 227.289062 198.722656 228.132812 C 199.195312 224.703125 192.453125 224.3125 192.121094 226.933594 Z M 175.90625 230.535156 C 174.976562 233.070312 179.238281 230.402344 178.308594 232.9375 C 177.53125 232.109375 175.699219 232.347656 174.105469 232.335938 C 175.75 230.679688 173.226562 231.773438 172.90625 230.539062 C 173.804688 230.4375 175.121094 230.753906 175.308594 229.9375 C 172.488281 229.621094 170.527344 229.367188 166.90625 228.738281 C 167.175781 230.867188 170.875 229.566406 171.105469 231.742188 C 166.1875 230.527344 161.921875 229.152344 156.695312 230.539062 C 168.304688 233.195312 181.792969 235.632812 193.320312 236.542969 C 193.082031 234.5 191.476562 235.554688 193.320312 234.140625 C 192.855469 234.007812 192.136719 234.128906 192.125 233.542969 C 189.492188 233.109375 192.605469 234.734375 190.921875 234.742188 C 186.472656 231.519531 181.097656 232.230469 175.90625 230.535156 Z M 177.707031 225.132812 C 181.136719 225.507812 183.820312 226.625 187.914062 226.332031 C 184.195312 224.042969 183.960938 224.683594 177.707031 225.132812 Z M 168.101562 205.320312 C 169.386719 205.746094 175.148438 207.058594 174.707031 205.320312 C 172.070312 206.125 169.742188 203.53125 168.101562 205.320312 Z M 152.492188 203.523438 C 155.855469 206.933594 162.429688 203.519531 166.902344 205.925781 C 166.320312 202.703125 159.921875 205.296875 158.496094 202.921875 C 163.710938 202.714844 168.355469 203.066406 172.90625 203.523438 C 156.125 199.230469 133.136719 197.109375 117.070312 199.320312 C 117.710938 199.292969 118.597656 199.601562 117.671875 199.921875 C 93.746094 198.074219 75.257812 195.722656 55.230469 203.523438 C 58.957031 203.121094 67.3125 204.992188 72.644531 204.121094 C 71.9375 204.03125 70.941406 204.226562 70.84375 203.523438 C 72.878906 203.339844 76.808594 206.226562 74.445312 203.523438 C 84.625 201.074219 87.722656 204.410156 94.257812 202.921875 C 93.523438 202.855469 92.835938 202.738281 93.058594 201.722656 C 95.375 204.972656 99.722656 202.0625 102.664062 203.523438 C 103.585938 200.804688 98.746094 203.839844 99.664062 201.121094 C 116.851562 204.335938 138.785156 203.96875 152.492188 203.523438 Z M 133.882812 207.722656 C 143.148438 210.554688 155.792969 209.488281 165.699219 209.523438 C 155.792969 208.394531 145.242188 206.640625 133.882812 207.722656 Z M 151.894531 285.765625 C 154.878906 287.160156 159.015625 290.644531 163.296875 287.5625 C 160.824219 286.023438 154.683594 284.988281 151.894531 285.765625 Z M 152.492188 190.316406 C 153.238281 193.984375 153.328125 191.066406 156.695312 192.113281 C 156.742188 190.066406 154.46875 190.335938 152.492188 190.316406 Z M 146.488281 192.117188 C 146.78125 191.046875 147.128906 192.375 147.683594 192.714844 C 148.726562 191.460938 151.148438 192.535156 152.488281 192.117188 C 151.648438 191.960938 151.804688 190.800781 151.289062 190.320312 C 148.96875 190.636719 148.359375 189.246094 145.890625 189.714844 C 146.652344 191.21875 145.585938 191.59375 146.488281 192.117188 Z M 128.476562 223.328125 C 129.183594 223.238281 130.179688 223.433594 130.273438 222.730469 C 123.144531 219.675781 117.644531 219.335938 106.863281 219.730469 C 104.046875 225.003906 92.050781 219.8125 87.050781 223.929688 C 97.25 222.683594 105.195312 223.339844 113.46875 225.132812 C 103.652344 224.695312 95.902344 225.851562 88.851562 225.730469 C 96.597656 229.902344 109.828125 226.910156 121.273438 226.929688 C 132.167969 226.953125 143.257812 228.710938 152.492188 228.128906 C 144.535156 226.550781 134.8125 224.667969 128.476562 223.328125 Z M 132.679688 276.757812 C 133.058594 275.476562 136.375 276.199219 136.886719 276.757812 C 134.847656 272.988281 126.75 275.289062 122.472656 273.757812 C 123.679688 276.554688 129.859375 274.378906 130.277344 277.960938 C 127.289062 276.90625 121.484375 275.65625 120.070312 279.160156 C 126.40625 279.457031 133.511719 282.085938 136.28125 278.558594 C 140.476562 281.425781 142.882812 280.484375 148.890625 280.960938 C 148.917969 280.195312 149.65625 280.132812 149.488281 279.164062 C 143.660156 275.386719 138.910156 278.558594 132.679688 276.757812 Z M 113.46875 287.566406 C 119.792969 287.804688 124.140625 287.898438 129.074219 289.96875 C 125.910156 290.910156 122.476562 287.851562 121.273438 290.570312 C 130.074219 291.839844 138.417969 293.734375 147.683594 291.765625 C 140.015625 290.304688 134.304688 290.441406 128.476562 287.566406 C 131.066406 287.921875 134.792969 286.996094 138.082031 286.367188 C 128.25 283.640625 114.53125 283.492188 104.464844 282.765625 C 104.878906 284.550781 106.671875 284.957031 107.464844 286.367188 C 99.375 283.605469 90.597656 281.25 81.046875 282.765625 C 91.757812 285.71875 96.902344 287.003906 111.066406 286.964844 C 112.074219 290.15625 118.890625 290.070312 120.070312 289.367188 C 116.320312 289.117188 115.078125 289.042969 113.46875 287.566406 Z M 138.683594 190.914062 C 140.429688 191.65625 143.171875 190.605469 145.285156 192.113281 C 145.074219 188.777344 140.8125 190 138.683594 190.914062 Z M 145.890625 187.914062 C 144.0625 188.289062 140.71875 187.144531 139.882812 188.511719 C 142.160156 188.800781 145.089844 190.808594 145.890625 187.914062 Z M 139.285156 181.3125 C 142.144531 180.234375 142.335938 181.785156 144.683594 182.507812 C 144.761719 180.730469 139.777344 178.636719 139.285156 181.3125 Z M 126.675781 234.738281 C 124.742188 234.457031 127.160156 232.019531 129.078125 231.132812 C 129.40625 233.664062 138.421875 231.058594 134.480469 234.136719 C 139.085938 233.625 141.667969 235.195312 144.089844 234.136719 C 142.300781 232.320312 137.941406 233.082031 136.285156 231.132812 C 137.015625 231.066406 137.707031 230.953125 137.480469 229.9375 C 127.320312 228.097656 112.5 227.789062 100.257812 229.335938 C 103.429688 233.035156 109.292969 230.976562 114.671875 232.9375 C 111.460938 232.925781 108.027344 232.699219 106.265625 234.136719 C 114.09375 236.875 118.839844 235.261719 126.675781 234.738281 Z M 134.480469 180.710938 C 134.945312 180.574219 135.660156 180.695312 135.679688 180.109375 C 131.027344 180.335938 123.433594 177.859375 120.070312 180.710938 C 122.089844 180.351562 124.113281 180.925781 122.472656 182.511719 C 126.390625 180.871094 132.179688 183.933594 136.285156 181.914062 C 135.570312 181.617188 134.917969 181.269531 134.480469 180.710938 Z M 96.058594 180.710938 C 98.96875 181.25 103.113281 180.453125 105.664062 180.109375 C 102.765625 179.179688 98.289062 178.464844 96.058594 180.710938 Z M 89.453125 178.90625 C 90.855469 178.753906 94.578125 181.160156 94.253906 178.90625 C 93.128906 178.777344 90.273438 177.363281 89.453125 178.90625 Z M 87.648438 279.761719 C 88.839844 281.722656 92.582031 281.976562 93.050781 280.363281 C 91.558594 279.859375 89.839844 279.574219 87.648438 279.761719 Z M 87.648438 279.761719 " fill-opacity="1" fill-rule="evenodd"/></g><path fill="#ac99dd" d="M 93.65625 297.769531 C 95.191406 297.890625 88.453125 299.769531 88.855469 296.566406 C 90.226562 297.195312 92.46875 296.949219 93.65625 297.769531 Z M 93.65625 297.769531 " fill-opacity="1" fill-rule="evenodd"/><path fill="#ac99dd" d="M 81.046875 297.171875 C 80.78125 293.699219 84.421875 297.300781 88.25 296.566406 C 83.644531 300.726562 75.914062 296.503906 69.039062 295.96875 C 61.777344 295.40625 54.449219 296.242188 49.226562 292.367188 C 57.574219 294.78125 71.417969 295.257812 81.046875 297.171875 Z M 81.046875 297.171875 " fill-opacity="1" fill-rule="evenodd"/><path fill="#ac99dd" d="M 69.039062 293.570312 C 69.296875 294.484375 63.496094 291.671875 61.234375 291.164062 C 63.410156 290.015625 66.886719 292.707031 69.039062 293.570312 Z M 69.039062 293.570312 " fill-opacity="1" fill-rule="evenodd"/></svg>